<svg width="19" height="19" viewBox="0 0 19 19" fill="none" xmlns="http://www.w3.org/2000/svg">
<path d="M13.6404 1H5.21346C2.88643 1 1 2.88643 1 5.21346V13.6404C1 15.9674 2.88643 17.8538 5.21346 17.8538H13.6404C15.9674 17.8538 17.8538 15.9674 17.8538 13.6404V5.21346C17.8538 2.88643 15.9674 1 13.6404 1Z" stroke="white" stroke-width="1.5" stroke-linecap="round" stroke-linejoin="round"/>
<path d="M12.7977 8.89599C12.9017 9.59731 12.7819 10.3136 12.4553 10.9429C12.1288 11.5722 11.6121 12.0825 10.9788 12.4013C10.3455 12.7201 9.62784 12.831 8.92785 12.7184C8.22785 12.6057 7.5812 12.2752 7.07987 11.7739C6.57853 11.2726 6.24804 10.6259 6.1354 9.92593C6.02277 9.22594 6.13372 8.50826 6.45247 7.87496C6.77123 7.24166 7.28156 6.725 7.91088 6.39845C8.54021 6.07191 9.25647 5.95212 9.95779 6.05612C10.6732 6.1622 11.3355 6.49555 11.8468 7.00693C12.3582 7.51831 12.6916 8.18061 12.7977 8.89599Z" stroke="white" stroke-width="1.5" stroke-linecap="round" stroke-linejoin="round"/>
<path d="M14.0617 4.79211H14.0707" stroke="white" stroke-width="2" stroke-linecap="round" stroke-linejoin="round"/>
</svg>
