<svg width="20" height="18" viewBox="0 0 20 18" fill="none" xmlns="http://www.w3.org/2000/svg">
<path d="M13.4492 6.05615C14.7901 6.05615 16.0762 6.58885 17.0244 7.53706C17.9726 8.48528 18.5053 9.77133 18.5053 11.1123V17.0111H15.1345V11.1123C15.1345 10.6653 14.957 10.2366 14.6409 9.92055C14.3248 9.60448 13.8961 9.42692 13.4492 9.42692C13.0022 9.42692 12.5735 9.60448 12.2574 9.92055C11.9413 10.2366 11.7638 10.6653 11.7638 11.1123V17.0111H8.39301V11.1123C8.39301 9.77133 8.92571 8.48528 9.87392 7.53706C10.8221 6.58885 12.1082 6.05615 13.4492 6.05615V6.05615Z" stroke="white" stroke-width="1.5" stroke-linecap="round" stroke-linejoin="round"/>
<path d="M5.02225 6.89886H1.65149V17.0112H5.02225V6.89886Z" stroke="white" stroke-width="1.5" stroke-linecap="round" stroke-linejoin="round"/>
<path d="M3.33687 4.37076C4.26768 4.37076 5.02225 3.61619 5.02225 2.68538C5.02225 1.75457 4.26768 1 3.33687 1C2.40606 1 1.65149 1.75457 1.65149 2.68538C1.65149 3.61619 2.40606 4.37076 3.33687 4.37076Z" stroke="white" stroke-width="1.5" stroke-linecap="round" stroke-linejoin="round"/>
</svg>
