<svg width="21" height="16" viewBox="0 0 21 16" fill="none" xmlns="http://www.w3.org/2000/svg">
<path d="M19.6119 3.72468C19.5118 3.32474 19.3079 2.95831 19.0209 2.66239C18.7338 2.36646 18.3738 2.15153 17.9771 2.03929C16.5276 1.68536 10.7299 1.68536 10.7299 1.68536C10.7299 1.68536 4.93221 1.68536 3.48278 2.073C3.08608 2.18524 2.72602 2.40017 2.43898 2.69609C2.15193 2.99202 1.94806 3.35845 1.84796 3.75838C1.58269 5.22935 1.45294 6.72155 1.46032 8.21622C1.45086 9.72215 1.58063 11.2257 1.84796 12.7078C1.95832 13.0953 2.16675 13.4478 2.45313 13.7312C2.73951 14.0146 3.09415 14.2194 3.48278 14.3257C4.93221 14.7134 10.7299 14.7134 10.7299 14.7134C10.7299 14.7134 16.5276 14.7134 17.9771 14.3257C18.3738 14.2135 18.7338 13.9986 19.0209 13.7026C19.3079 13.4067 19.5118 13.0403 19.6119 12.6403C19.8751 11.1805 20.0049 9.69964 19.9995 8.21622C20.009 6.71029 19.8792 5.20672 19.6119 3.72468V3.72468Z" stroke="white" stroke-width="1.5" stroke-linecap="round" stroke-linejoin="round"/>
<path d="M8.83386 10.9718L13.6793 8.21623L8.83386 5.46063V10.9718Z" stroke="white" stroke-width="1.5" stroke-linecap="round" stroke-linejoin="round"/>
</svg>
